<svg width="130" height="40" viewBox="0 0 130 40" fill="none" xmlns="http://www.w3.org/2000/svg">
<path d="M11.8051 27.14C9.58376 27.14 7.65176 26.7387 6.00909 25.936C4.36643 25.1147 3.10643 23.9573 2.22909 22.464C1.35176 20.9707 0.913094 19.2347 0.913094 17.256C0.913094 14.512 1.42643 12.076 2.45309 9.948C3.49843 7.82 4.90776 6.17733 6.68109 5.02C8.45443 3.844 10.4238 3.256 12.5891 3.256C14.6051 3.256 16.1358 3.77867 17.1811 4.824C18.2264 5.85067 18.7491 7.21333 18.7491 8.912C18.7491 10.0507 18.5438 10.9653 18.1331 11.656C17.7411 12.3467 17.1718 12.692 16.4251 12.692C15.9024 12.692 15.4918 12.5707 15.1931 12.328C14.8944 12.0853 14.7451 11.7307 14.7451 11.264C14.7451 11.096 14.7824 10.788 14.8571 10.34C14.9691 9.78 15.0251 9.332 15.0251 8.996C15.0251 7.29733 14.1198 6.448 12.3091 6.448C11.0771 6.448 9.90109 6.84933 8.78109 7.652C7.66109 8.45467 6.75576 9.64 6.06509 11.208C5.37443 12.7573 5.02909 14.6053 5.02909 16.752C5.02909 18.992 5.65443 20.728 6.90509 21.96C8.15576 23.1733 10.0038 23.78 12.4491 23.78C13.6624 23.78 14.8851 23.6307 16.1171 23.332C17.3678 23.0147 18.7491 22.5387 20.2611 21.904C20.5411 21.792 20.7744 21.736 20.9611 21.736C21.2598 21.736 21.4838 21.848 21.6331 22.072C21.7824 22.296 21.8571 22.5853 21.8571 22.94C21.8571 24.0787 21.2411 24.9187 20.0091 25.46C18.6838 26.0387 17.3024 26.468 15.8651 26.748C14.4464 27.0093 13.0931 27.14 11.8051 27.14ZM33.667 18.404C33.9096 18.404 34.0963 18.5253 34.227 18.768C34.3576 19.0107 34.423 19.3187 34.423 19.692C34.423 20.588 34.1523 21.12 33.611 21.288C32.491 21.68 31.259 21.904 29.915 21.96C29.5603 23.528 28.8603 24.788 27.815 25.74C26.7696 26.6733 25.5843 27.14 24.259 27.14C23.139 27.14 22.1776 26.8693 21.375 26.328C20.591 25.7867 19.9936 25.068 19.583 24.172C19.1723 23.276 18.967 22.3053 18.967 21.26C18.967 19.8413 19.2376 18.5813 19.779 17.48C20.3203 16.36 21.067 15.492 22.019 14.876C22.971 14.2413 24.0256 13.924 25.183 13.924C26.6016 13.924 27.7403 14.4187 28.599 15.408C29.4763 16.3787 29.9896 17.5827 30.139 19.02C31.0163 18.964 32.0616 18.7773 33.275 18.46C33.4243 18.4227 33.555 18.404 33.667 18.404ZM24.483 24.172C25.0803 24.172 25.5936 23.9293 26.023 23.444C26.471 22.9587 26.7696 22.2587 26.919 21.344C26.3403 20.952 25.8923 20.4387 25.575 19.804C25.2763 19.1693 25.127 18.4973 25.127 17.788C25.127 17.4893 25.155 17.1907 25.211 16.892H25.071C24.3243 16.892 23.699 17.256 23.195 17.984C22.7096 18.6933 22.467 19.7013 22.467 21.008C22.467 22.0347 22.663 22.8187 23.055 23.36C23.4656 23.9013 23.9416 24.172 24.483 24.172ZM51.9558 19.16C52.4784 19.16 52.7398 19.552 52.7398 20.336C52.7398 21.8293 51.5451 22.576 49.1558 22.576C49.0624 22.576 48.5398 22.548 47.5878 22.492C47.7931 23.4813 47.9518 24.6107 48.0638 25.88C48.1944 27.1307 48.2598 28.3813 48.2598 29.632C48.2598 31.648 47.9144 33.188 47.2238 34.252C46.5518 35.316 45.6838 35.848 44.6198 35.848C43.2758 35.848 42.3144 34.896 41.7358 32.992C41.1758 31.088 40.8958 28.2133 40.8958 24.368C40.8958 23.3787 40.9238 22.38 40.9798 21.372C40.8118 21.3907 40.5411 21.4 40.1678 21.4C39.6638 21.4 39.2531 21.4093 38.9358 21.428C39.1224 22.8093 39.2624 24.1347 39.3558 25.404C39.4678 26.6733 39.5238 28.0827 39.5238 29.632C39.5238 31.648 39.1784 33.188 38.4878 34.252C37.8158 35.316 36.9478 35.848 35.8838 35.848C34.5398 35.848 33.5784 34.896 32.9998 32.992C32.4398 31.088 32.1598 28.2133 32.1598 24.368C32.1598 20.7653 32.5144 17.1253 33.2238 13.448C33.9518 9.752 34.9598 6.7 36.2478 4.292C37.5358 1.884 38.9918 0.679998 40.6158 0.679998C41.4558 0.679998 42.1091 1.03466 42.5758 1.744C43.0611 2.43466 43.3038 3.43333 43.3038 4.74C43.3038 6.77467 42.7531 9.04267 41.6518 11.544C40.5691 14.0267 38.6464 16.64 35.8838 19.384C35.7158 21.0267 35.6318 22.6227 35.6318 24.172C35.6318 26.0947 35.6971 28.064 35.8278 30.08C35.9584 32.1147 36.1731 33.132 36.4718 33.132C36.7518 33.132 36.9758 32.8987 37.1438 32.432C37.3118 31.9653 37.3958 31.228 37.3958 30.22C37.3958 28.3907 37.3211 26.776 37.1718 25.376C37.0411 23.9573 36.8824 22.8187 36.6958 21.96C36.6584 21.8293 36.6398 21.6333 36.6398 21.372C36.6398 20.5693 36.9571 19.9067 37.5918 19.384C38.2451 18.8613 39.1038 18.5907 40.1678 18.572H40.8398H41.2318C41.5864 15.4733 42.1651 12.5613 42.9678 9.836C43.7891 7.092 44.7784 4.88 45.9358 3.2C47.1118 1.52 48.3718 0.679998 49.7158 0.679998C50.5931 0.679998 51.2744 1.072 51.7598 1.856C52.2638 2.64 52.5158 3.69467 52.5158 5.02C52.5158 6.66267 52.2078 8.50133 51.5918 10.536C50.9758 12.5707 50.0611 14.484 48.8478 16.276C47.6531 18.0493 46.2251 19.384 44.5638 20.28C44.4331 21.5307 44.3678 22.828 44.3678 24.172C44.3678 26.0947 44.4331 28.064 44.5638 30.08C44.6944 32.1147 44.9091 33.132 45.2078 33.132C45.4878 33.132 45.7118 32.8987 45.8798 32.432C46.0478 31.9653 46.1318 31.228 46.1318 30.22C46.1318 28.764 46.0571 27.3733 45.9078 26.048C45.7584 24.7227 45.5998 23.64 45.4318 22.8C45.3944 22.6507 45.3758 22.4453 45.3758 22.184C45.3758 21.4187 45.6371 20.7747 46.1598 20.252C46.6824 19.7107 47.2798 19.44 47.9518 19.44C48.5864 19.44 49.1651 19.4213 49.6878 19.384C50.2291 19.328 50.5744 19.2907 50.7238 19.272C51.3584 19.1973 51.7691 19.16 51.9558 19.16ZM40.0278 3.452C39.6918 3.452 39.2904 4.02133 38.8238 5.16C38.3758 6.29867 37.9278 7.81067 37.4798 9.696C37.0318 11.5813 36.6491 13.588 36.3318 15.716C37.7504 14.036 38.8144 12.216 39.5238 10.256C40.2518 8.27733 40.6158 6.48533 40.6158 4.88C40.6158 4.41333 40.5598 4.05866 40.4478 3.816C40.3358 3.57333 40.1958 3.452 40.0278 3.452ZM49.1278 3.452C48.7544 3.452 48.2971 4.10533 47.7558 5.412C47.2331 6.71867 46.7104 8.42667 46.1878 10.536C45.6838 12.6453 45.2638 14.8293 44.9278 17.088C45.9918 16.248 46.8878 15.128 47.6158 13.728C48.3624 12.328 48.9131 10.8627 49.2678 9.332C49.6411 7.80133 49.8278 6.41067 49.8278 5.16C49.8278 4.02133 49.5944 3.452 49.1278 3.452ZM63.1015 20.756C63.3442 20.756 63.5309 20.868 63.6615 21.092C63.8109 21.316 63.8855 21.624 63.8855 22.016C63.8855 22.7627 63.7082 23.3413 63.3535 23.752C62.6629 24.592 61.6829 25.3667 60.4135 26.076C59.1629 26.7853 57.8189 27.14 56.3815 27.14C54.4215 27.14 52.9002 26.608 51.8175 25.544C50.7349 24.48 50.1935 23.024 50.1935 21.176C50.1935 19.888 50.4642 18.6933 51.0055 17.592C51.5469 16.472 52.2935 15.5853 53.2455 14.932C54.2162 14.2787 55.3082 13.952 56.5215 13.952C57.6042 13.952 58.4722 14.2787 59.1255 14.932C59.7789 15.5667 60.1055 16.4347 60.1055 17.536C60.1055 18.824 59.6389 19.9347 58.7055 20.868C57.7909 21.7827 56.2322 22.5107 54.0295 23.052C54.4962 23.9107 55.3829 24.34 56.6895 24.34C57.5295 24.34 58.4815 24.0507 59.5455 23.472C60.6282 22.8747 61.5615 22.1 62.3455 21.148C62.5695 20.8867 62.8215 20.756 63.1015 20.756ZM56.0455 16.696C55.3549 16.696 54.7669 17.0973 54.2815 17.9C53.8149 18.7027 53.5815 19.6733 53.5815 20.812V20.868C54.6829 20.6067 55.5509 20.2147 56.1855 19.692C56.8202 19.1693 57.1375 18.5627 57.1375 17.872C57.1375 17.5173 57.0349 17.2373 56.8295 17.032C56.6429 16.808 56.3815 16.696 56.0455 16.696ZM74.0937 20.756C74.3364 20.756 74.5231 20.868 74.6537 21.092C74.8031 21.316 74.8777 21.624 74.8777 22.016C74.8777 22.7627 74.7004 23.3413 74.3457 23.752C73.6551 24.592 72.6751 25.3667 71.4057 26.076C70.1551 26.7853 68.8111 27.14 67.3737 27.14C65.4137 27.14 63.8924 26.608 62.8097 25.544C61.7271 24.48 61.1857 23.024 61.1857 21.176C61.1857 19.888 61.4564 18.6933 61.9977 17.592C62.5391 16.472 63.2857 15.5853 64.2377 14.932C65.2084 14.2787 66.3004 13.952 67.5137 13.952C68.5964 13.952 69.4644 14.2787 70.1177 14.932C70.7711 15.5667 71.0977 16.4347 71.0977 17.536C71.0977 18.824 70.6311 19.9347 69.6977 20.868C68.7831 21.7827 67.2244 22.5107 65.0217 23.052C65.4884 23.9107 66.3751 24.34 67.6817 24.34C68.5217 24.34 69.4737 24.0507 70.5377 23.472C71.6204 22.8747 72.5537 22.1 73.3377 21.148C73.5617 20.8867 73.8137 20.756 74.0937 20.756ZM67.0377 16.696C66.3471 16.696 65.7591 17.0973 65.2737 17.9C64.8071 18.7027 64.5737 19.6733 64.5737 20.812V20.868C65.6751 20.6067 66.5431 20.2147 67.1777 19.692C67.8124 19.1693 68.1297 18.5627 68.1297 17.872C68.1297 17.5173 68.0271 17.2373 67.8217 17.032C67.6351 16.808 67.3737 16.696 67.0377 16.696ZM80.4099 27.224C77.9272 27.224 75.9392 26.7573 74.4459 25.824C72.9526 24.872 72.2059 23.4253 72.2059 21.484C72.2059 20.4573 72.3832 19.6733 72.7379 19.132C73.0926 18.5907 73.6152 18.32 74.3059 18.32C74.8099 18.32 75.2206 18.4507 75.5379 18.712C75.8552 18.9733 76.0139 19.3093 76.0139 19.72C76.0139 20.0933 75.9859 20.42 75.9299 20.7C75.9299 20.7747 75.9112 20.9053 75.8739 21.092C75.8552 21.2787 75.8459 21.4747 75.8459 21.68C75.8459 22.52 76.2659 23.1453 77.1059 23.556C77.9646 23.9667 79.1592 24.172 80.6899 24.172C82.2766 24.172 83.5179 23.892 84.4139 23.332C85.3099 22.7533 85.7579 21.9507 85.7579 20.924C85.7579 20.2893 85.5526 19.748 85.1419 19.3C84.7312 18.8333 84.2179 18.4507 83.6019 18.152C82.9859 17.8347 82.1179 17.452 80.9979 17.004C79.5606 16.444 78.3846 15.912 77.4699 15.408C76.5739 14.904 75.7992 14.2227 75.1459 13.364C74.5112 12.4867 74.1939 11.404 74.1939 10.116C74.1939 8.772 74.5486 7.57733 75.2579 6.532C75.9859 5.48667 77.0219 4.67467 78.3659 4.096C79.7286 3.51733 81.3246 3.228 83.1539 3.228C84.5166 3.228 85.7672 3.43333 86.9059 3.844C88.0446 4.236 88.9499 4.84267 89.6219 5.664C90.3126 6.48533 90.6579 7.49333 90.6579 8.688C90.6579 9.864 90.4806 10.7507 90.1259 11.348C89.7712 11.9453 89.2486 12.244 88.5579 12.244C88.0726 12.244 87.6619 12.0947 87.3259 11.796C87.0086 11.4973 86.8499 11.1427 86.8499 10.732C86.8499 10.3773 86.8779 10.0507 86.9339 9.752C86.9899 9.192 87.0179 8.83733 87.0179 8.688C87.0179 7.904 86.6352 7.30667 85.8699 6.896C85.1046 6.48533 84.1526 6.28 83.0139 6.28C81.4086 6.28 80.1766 6.57867 79.3179 7.176C78.4779 7.75467 78.0579 8.576 78.0579 9.64C78.0579 10.3493 78.2726 10.956 78.7019 11.46C79.1499 11.964 79.7006 12.384 80.3539 12.72C81.0072 13.056 81.9219 13.4573 83.0979 13.924C84.5166 14.5027 85.6552 15.0253 86.5139 15.492C87.3726 15.9587 88.1006 16.5933 88.6979 17.396C89.3139 18.1987 89.6219 19.188 89.6219 20.364C89.6219 22.5667 88.7819 24.2653 87.1019 25.46C85.4406 26.636 83.2099 27.224 80.4099 27.224ZM107.279 20.756C107.521 20.756 107.708 20.868 107.839 21.092C107.988 21.316 108.063 21.624 108.063 22.016C108.063 22.7627 107.885 23.3413 107.531 23.752C106.672 24.7413 105.785 25.5533 104.871 26.188C103.975 26.8227 102.948 27.14 101.791 27.14C100.839 27.14 100.12 26.8693 99.6345 26.328C99.1492 25.768 98.9065 24.9653 98.9065 23.92C98.9065 23.3973 99.0372 22.464 99.2985 21.12C99.5412 19.944 99.6625 19.132 99.6625 18.684C99.6625 18.3853 99.5599 18.236 99.3545 18.236C99.1119 18.236 98.7665 18.5533 98.3185 19.188C97.8705 19.804 97.4225 20.6253 96.9745 21.652C96.5265 22.6787 96.1625 23.7613 95.8825 24.9C95.5279 26.3933 94.6505 27.14 93.2505 27.14C92.6905 27.14 92.3172 26.944 92.1305 26.552C91.9625 26.1413 91.8785 25.4133 91.8785 24.368C91.8785 23.7707 91.8879 23.2947 91.9065 22.94L91.9345 20.7C91.9345 17.8253 92.2239 14.8293 92.8025 11.712C93.3999 8.59467 94.2679 5.98133 95.4065 3.872C96.5639 1.744 97.9452 0.679998 99.5505 0.679998C100.409 0.679998 101.1 1.05333 101.623 1.8C102.164 2.528 102.435 3.48 102.435 4.656C102.435 6.54133 101.884 8.50133 100.783 10.536C99.6812 12.552 97.8892 14.9133 95.4065 17.62C95.3505 18.5907 95.3225 19.5893 95.3225 20.616C95.9385 19.0293 96.6199 17.7413 97.3665 16.752C98.1319 15.744 98.8785 15.0253 99.6065 14.596C100.353 14.1667 101.035 13.952 101.651 13.952C102.864 13.952 103.471 14.5587 103.471 15.772C103.471 16.5 103.265 17.816 102.855 19.72C102.5 21.344 102.323 22.4173 102.323 22.94C102.323 23.6867 102.593 24.06 103.135 24.06C103.508 24.06 103.947 23.836 104.451 23.388C104.973 22.9213 105.664 22.1747 106.523 21.148C106.747 20.8867 106.999 20.756 107.279 20.756ZM98.9625 3.452C98.6265 3.452 98.2532 3.93733 97.8425 4.908C97.4319 5.86 97.0305 7.15733 96.6385 8.8C96.2652 10.424 95.9572 12.1973 95.7145 14.12C96.8719 12.7573 97.8239 11.2733 98.5705 9.668C99.3359 8.06267 99.7185 6.60667 99.7185 5.3C99.7185 4.70267 99.6532 4.24533 99.5225 3.928C99.3919 3.61067 99.2052 3.452 98.9625 3.452ZM120.073 18.404C120.316 18.404 120.503 18.5253 120.633 18.768C120.764 19.0107 120.829 19.3187 120.829 19.692C120.829 20.588 120.559 21.12 120.017 21.288C118.897 21.68 117.665 21.904 116.321 21.96C115.967 23.528 115.267 24.788 114.221 25.74C113.176 26.6733 111.991 27.14 110.665 27.14C109.545 27.14 108.584 26.8693 107.781 26.328C106.997 25.7867 106.4 25.068 105.989 24.172C105.579 23.276 105.373 22.3053 105.373 21.26C105.373 19.8413 105.644 18.5813 106.185 17.48C106.727 16.36 107.473 15.492 108.425 14.876C109.377 14.2413 110.432 13.924 111.589 13.924C113.008 13.924 114.147 14.4187 115.005 15.408C115.883 16.3787 116.396 17.5827 116.545 19.02C117.423 18.964 118.468 18.7773 119.681 18.46C119.831 18.4227 119.961 18.404 120.073 18.404ZM110.889 24.172C111.487 24.172 112 23.9293 112.429 23.444C112.877 22.9587 113.176 22.2587 113.325 21.344C112.747 20.952 112.299 20.4387 111.981 19.804C111.683 19.1693 111.533 18.4973 111.533 17.788C111.533 17.4893 111.561 17.1907 111.617 16.892H111.477C110.731 16.892 110.105 17.256 109.601 17.984C109.116 18.6933 108.873 19.7013 108.873 21.008C108.873 22.0347 109.069 22.8187 109.461 23.36C109.872 23.9013 110.348 24.172 110.889 24.172ZM129.514 18.46C129.514 19.9347 129.169 21.3347 128.478 22.66C127.806 23.9667 126.901 25.0307 125.762 25.852C124.642 26.6733 123.438 27.1027 122.15 27.14C121.907 30.7427 121.357 33.748 120.498 36.156C119.639 38.5827 118.379 39.796 116.718 39.796C115.71 39.796 114.963 39.432 114.478 38.704C113.993 37.976 113.75 36.968 113.75 35.68C113.75 33.8507 114.17 31.7133 115.01 29.268C115.85 26.8413 117.147 24.1627 118.902 21.232C118.902 18.5067 118.883 16.612 118.846 15.548C118.827 15.0067 119.042 14.5773 119.49 14.26C119.938 13.9427 120.498 13.784 121.17 13.784C121.562 13.784 121.842 13.868 122.01 14.036C122.197 14.1853 122.299 14.4933 122.318 14.96C122.318 15.4267 122.327 15.772 122.346 15.996C122.943 15.2493 123.531 14.7173 124.11 14.4C124.689 14.064 125.305 13.896 125.958 13.896C127.003 13.896 127.853 14.316 128.506 15.156C129.178 15.996 129.514 17.0973 129.514 18.46ZM122.29 24.452C122.962 24.3027 123.578 23.9387 124.138 23.36C124.717 22.7627 125.174 22.0347 125.51 21.176C125.846 20.2987 126.014 19.384 126.014 18.432C126.014 17.872 125.902 17.452 125.678 17.172C125.454 16.8733 125.155 16.724 124.782 16.724C124.11 16.724 123.298 17.4333 122.346 18.852C122.327 19.6733 122.318 20.8773 122.318 22.464C122.318 23.3227 122.309 23.9853 122.29 24.452ZM116.942 37.052C117.446 37.052 117.866 35.9507 118.202 33.748C118.538 31.564 118.753 28.8387 118.846 25.572C118.043 27.4387 117.409 29.2213 116.942 30.92C116.475 32.6187 116.242 34.0467 116.242 35.204C116.242 35.8013 116.317 36.2587 116.466 36.576C116.597 36.8933 116.755 37.052 116.942 37.052Z" fill="#611402"/>
</svg>
