<svg width="119" height="40" viewBox="0 0 119 40" fill="none" xmlns="http://www.w3.org/2000/svg">
<path d="M11.3012 27.14C9.07985 27.14 7.14785 26.7387 5.50519 25.936C3.86252 25.1147 2.60252 23.9573 1.72519 22.464C0.847854 20.9707 0.409188 19.2347 0.409188 17.256C0.409188 14.512 0.922521 12.076 1.94919 9.948C2.99452 7.82 4.40385 6.17733 6.17719 5.02C7.95052 3.844 9.91985 3.256 12.0852 3.256C14.1012 3.256 15.6319 3.77867 16.6772 4.824C17.7225 5.85067 18.2452 7.21333 18.2452 8.912C18.2452 10.0507 18.0399 10.9653 17.6292 11.656C17.2372 12.3467 16.6679 12.692 15.9212 12.692C15.3985 12.692 14.9879 12.5707 14.6892 12.328C14.3905 12.0853 14.2412 11.7307 14.2412 11.264C14.2412 11.096 14.2785 10.788 14.3532 10.34C14.4652 9.78 14.5212 9.332 14.5212 8.996C14.5212 7.29733 13.6159 6.448 11.8052 6.448C10.5732 6.448 9.39719 6.84933 8.27719 7.652C7.15719 8.45467 6.25185 9.64 5.56119 11.208C4.87052 12.7573 4.52519 14.6053 4.52519 16.752C4.52519 18.992 5.15052 20.728 6.40119 21.96C7.65185 23.1733 9.49985 23.78 11.9452 23.78C13.1585 23.78 14.3812 23.6307 15.6132 23.332C16.8639 23.0147 18.2452 22.5387 19.7572 21.904C20.0372 21.792 20.2705 21.736 20.4572 21.736C20.7559 21.736 20.9799 21.848 21.1292 22.072C21.2785 22.296 21.3532 22.5853 21.3532 22.94C21.3532 24.0787 20.7372 24.9187 19.5052 25.46C18.1799 26.0387 16.7985 26.468 15.3612 26.748C13.9425 27.0093 12.5892 27.14 11.3012 27.14ZM33.1631 18.404C33.4057 18.404 33.5924 18.5253 33.7231 18.768C33.8537 19.0107 33.9191 19.3187 33.9191 19.692C33.9191 20.588 33.6484 21.12 33.1071 21.288C31.9871 21.68 30.7551 21.904 29.4111 21.96C29.0564 23.528 28.3564 24.788 27.3111 25.74C26.2657 26.6733 25.0804 27.14 23.7551 27.14C22.6351 27.14 21.6737 26.8693 20.8711 26.328C20.0871 25.7867 19.4897 25.068 19.0791 24.172C18.6684 23.276 18.4631 22.3053 18.4631 21.26C18.4631 19.8413 18.7337 18.5813 19.2751 17.48C19.8164 16.36 20.5631 15.492 21.5151 14.876C22.4671 14.2413 23.5217 13.924 24.6791 13.924C26.0977 13.924 27.2364 14.4187 28.0951 15.408C28.9724 16.3787 29.4857 17.5827 29.6351 19.02C30.5124 18.964 31.5577 18.7773 32.7711 18.46C32.9204 18.4227 33.0511 18.404 33.1631 18.404ZM23.9791 24.172C24.5764 24.172 25.0897 23.9293 25.5191 23.444C25.9671 22.9587 26.2657 22.2587 26.4151 21.344C25.8364 20.952 25.3884 20.4387 25.0711 19.804C24.7724 19.1693 24.6231 18.4973 24.6231 17.788C24.6231 17.4893 24.6511 17.1907 24.7071 16.892H24.5671C23.8204 16.892 23.1951 17.256 22.6911 17.984C22.2057 18.6933 21.9631 19.7013 21.9631 21.008C21.9631 22.0347 22.1591 22.8187 22.5511 23.36C22.9617 23.9013 23.4377 24.172 23.9791 24.172ZM51.4519 19.16C51.9745 19.16 52.2359 19.552 52.2359 20.336C52.2359 21.8293 51.0412 22.576 48.6519 22.576C48.5585 22.576 48.0359 22.548 47.0839 22.492C47.2892 23.4813 47.4479 24.6107 47.5599 25.88C47.6905 27.1307 47.7559 28.3813 47.7559 29.632C47.7559 31.648 47.4105 33.188 46.7199 34.252C46.0479 35.316 45.1799 35.848 44.1159 35.848C42.7719 35.848 41.8105 34.896 41.2319 32.992C40.6719 31.088 40.3919 28.2133 40.3919 24.368C40.3919 23.3787 40.4199 22.38 40.4759 21.372C40.3079 21.3907 40.0372 21.4 39.6639 21.4C39.1599 21.4 38.7492 21.4093 38.4319 21.428C38.6185 22.8093 38.7585 24.1347 38.8519 25.404C38.9639 26.6733 39.0199 28.0827 39.0199 29.632C39.0199 31.648 38.6745 33.188 37.9839 34.252C37.3119 35.316 36.4439 35.848 35.3799 35.848C34.0359 35.848 33.0745 34.896 32.4959 32.992C31.9359 31.088 31.6559 28.2133 31.6559 24.368C31.6559 20.7653 32.0105 17.1253 32.7199 13.448C33.4479 9.752 34.4559 6.7 35.7439 4.292C37.0319 1.884 38.4879 0.679998 40.1119 0.679998C40.9519 0.679998 41.6052 1.03466 42.0719 1.744C42.5572 2.43466 42.7999 3.43333 42.7999 4.74C42.7999 6.77467 42.2492 9.04267 41.1479 11.544C40.0652 14.0267 38.1425 16.64 35.3799 19.384C35.2119 21.0267 35.1279 22.6227 35.1279 24.172C35.1279 26.0947 35.1932 28.064 35.3239 30.08C35.4545 32.1147 35.6692 33.132 35.9679 33.132C36.2479 33.132 36.4719 32.8987 36.6399 32.432C36.8079 31.9653 36.8919 31.228 36.8919 30.22C36.8919 28.3907 36.8172 26.776 36.6679 25.376C36.5372 23.9573 36.3785 22.8187 36.1919 21.96C36.1545 21.8293 36.1359 21.6333 36.1359 21.372C36.1359 20.5693 36.4532 19.9067 37.0879 19.384C37.7412 18.8613 38.5999 18.5907 39.6639 18.572H40.3359H40.7279C41.0825 15.4733 41.6612 12.5613 42.4639 9.836C43.2852 7.092 44.2745 4.88 45.4319 3.2C46.6079 1.52 47.8679 0.679998 49.2119 0.679998C50.0892 0.679998 50.7705 1.072 51.2559 1.856C51.7599 2.64 52.0119 3.69467 52.0119 5.02C52.0119 6.66267 51.7039 8.50133 51.0879 10.536C50.4719 12.5707 49.5572 14.484 48.3439 16.276C47.1492 18.0493 45.7212 19.384 44.0599 20.28C43.9292 21.5307 43.8639 22.828 43.8639 24.172C43.8639 26.0947 43.9292 28.064 44.0599 30.08C44.1905 32.1147 44.4052 33.132 44.7039 33.132C44.9839 33.132 45.2079 32.8987 45.3759 32.432C45.5439 31.9653 45.6279 31.228 45.6279 30.22C45.6279 28.764 45.5532 27.3733 45.4039 26.048C45.2545 24.7227 45.0959 23.64 44.9279 22.8C44.8905 22.6507 44.8719 22.4453 44.8719 22.184C44.8719 21.4187 45.1332 20.7747 45.6559 20.252C46.1785 19.7107 46.7759 19.44 47.4479 19.44C48.0825 19.44 48.6612 19.4213 49.1839 19.384C49.7252 19.328 50.0705 19.2907 50.2199 19.272C50.8545 19.1973 51.2652 19.16 51.4519 19.16ZM39.5239 3.452C39.1879 3.452 38.7865 4.02133 38.3199 5.16C37.8719 6.29867 37.4239 7.81067 36.9759 9.696C36.5279 11.5813 36.1452 13.588 35.8279 15.716C37.2465 14.036 38.3105 12.216 39.0199 10.256C39.7479 8.27733 40.1119 6.48533 40.1119 4.88C40.1119 4.41333 40.0559 4.05866 39.9439 3.816C39.8319 3.57333 39.6919 3.452 39.5239 3.452ZM48.6239 3.452C48.2505 3.452 47.7932 4.10533 47.2519 5.412C46.7292 6.71867 46.2065 8.42667 45.6839 10.536C45.1799 12.6453 44.7599 14.8293 44.4239 17.088C45.4879 16.248 46.3839 15.128 47.1119 13.728C47.8585 12.328 48.4092 10.8627 48.7639 9.332C49.1372 7.80133 49.3239 6.41067 49.3239 5.16C49.3239 4.02133 49.0905 3.452 48.6239 3.452ZM62.5976 20.756C62.8403 20.756 63.027 20.868 63.1576 21.092C63.307 21.316 63.3816 21.624 63.3816 22.016C63.3816 22.7627 63.2043 23.3413 62.8496 23.752C62.159 24.592 61.179 25.3667 59.9096 26.076C58.659 26.7853 57.315 27.14 55.8776 27.14C53.9176 27.14 52.3963 26.608 51.3136 25.544C50.231 24.48 49.6896 23.024 49.6896 21.176C49.6896 19.888 49.9603 18.6933 50.5016 17.592C51.043 16.472 51.7896 15.5853 52.7416 14.932C53.7123 14.2787 54.8043 13.952 56.0176 13.952C57.1003 13.952 57.9683 14.2787 58.6216 14.932C59.275 15.5667 59.6016 16.4347 59.6016 17.536C59.6016 18.824 59.135 19.9347 58.2016 20.868C57.287 21.7827 55.7283 22.5107 53.5256 23.052C53.9923 23.9107 54.879 24.34 56.1856 24.34C57.0256 24.34 57.9776 24.0507 59.0416 23.472C60.1243 22.8747 61.0576 22.1 61.8416 21.148C62.0656 20.8867 62.3176 20.756 62.5976 20.756ZM55.5416 16.696C54.851 16.696 54.263 17.0973 53.7776 17.9C53.311 18.7027 53.0776 19.6733 53.0776 20.812V20.868C54.179 20.6067 55.047 20.2147 55.6816 19.692C56.3163 19.1693 56.6336 18.5627 56.6336 17.872C56.6336 17.5173 56.531 17.2373 56.3256 17.032C56.139 16.808 55.8776 16.696 55.5416 16.696ZM68.9138 27.224C66.4311 27.224 64.4431 26.7573 62.9498 25.824C61.4565 24.872 60.7098 23.4253 60.7098 21.484C60.7098 20.4573 60.8871 19.6733 61.2418 19.132C61.5965 18.5907 62.1191 18.32 62.8098 18.32C63.3138 18.32 63.7245 18.4507 64.0418 18.712C64.3591 18.9733 64.5178 19.3093 64.5178 19.72C64.5178 20.0933 64.4898 20.42 64.4338 20.7C64.4338 20.7747 64.4151 20.9053 64.3778 21.092C64.3591 21.2787 64.3498 21.4747 64.3498 21.68C64.3498 22.52 64.7698 23.1453 65.6098 23.556C66.4685 23.9667 67.6631 24.172 69.1938 24.172C70.7805 24.172 72.0218 23.892 72.9178 23.332C73.8138 22.7533 74.2618 21.9507 74.2618 20.924C74.2618 20.2893 74.0565 19.748 73.6458 19.3C73.2351 18.8333 72.7218 18.4507 72.1058 18.152C71.4898 17.8347 70.6218 17.452 69.5018 17.004C68.0645 16.444 66.8885 15.912 65.9738 15.408C65.0778 14.904 64.3031 14.2227 63.6498 13.364C63.0151 12.4867 62.6978 11.404 62.6978 10.116C62.6978 8.772 63.0525 7.57733 63.7618 6.532C64.4898 5.48667 65.5258 4.67467 66.8698 4.096C68.2325 3.51733 69.8285 3.228 71.6578 3.228C73.0205 3.228 74.2711 3.43333 75.4098 3.844C76.5485 4.236 77.4538 4.84267 78.1258 5.664C78.8165 6.48533 79.1618 7.49333 79.1618 8.688C79.1618 9.864 78.9845 10.7507 78.6298 11.348C78.2751 11.9453 77.7525 12.244 77.0618 12.244C76.5765 12.244 76.1658 12.0947 75.8298 11.796C75.5125 11.4973 75.3538 11.1427 75.3538 10.732C75.3538 10.3773 75.3818 10.0507 75.4378 9.752C75.4938 9.192 75.5218 8.83733 75.5218 8.688C75.5218 7.904 75.1391 7.30667 74.3738 6.896C73.6085 6.48533 72.6565 6.28 71.5178 6.28C69.9125 6.28 68.6805 6.57867 67.8218 7.176C66.9818 7.75467 66.5618 8.576 66.5618 9.64C66.5618 10.3493 66.7765 10.956 67.2058 11.46C67.6538 11.964 68.2045 12.384 68.8578 12.72C69.5111 13.056 70.4258 13.4573 71.6018 13.924C73.0205 14.5027 74.1591 15.0253 75.0178 15.492C75.8765 15.9587 76.6045 16.5933 77.2018 17.396C77.8178 18.1987 78.1258 19.188 78.1258 20.364C78.1258 22.5667 77.2858 24.2653 75.6058 25.46C73.9445 26.636 71.7138 27.224 68.9138 27.224ZM95.7824 20.756C96.0251 20.756 96.2118 20.868 96.3424 21.092C96.4918 21.316 96.5664 21.624 96.5664 22.016C96.5664 22.7627 96.3891 23.3413 96.0344 23.752C95.1758 24.7413 94.2891 25.5533 93.3744 26.188C92.4784 26.8227 91.4518 27.14 90.2944 27.14C89.3424 27.14 88.6238 26.8693 88.1384 26.328C87.6531 25.768 87.4104 24.9653 87.4104 23.92C87.4104 23.3973 87.5411 22.464 87.8024 21.12C88.0451 19.944 88.1664 19.132 88.1664 18.684C88.1664 18.3853 88.0638 18.236 87.8584 18.236C87.6158 18.236 87.2704 18.5533 86.8224 19.188C86.3744 19.804 85.9264 20.6253 85.4784 21.652C85.0304 22.6787 84.6664 23.7613 84.3864 24.9C84.0318 26.3933 83.1544 27.14 81.7544 27.14C81.1944 27.14 80.8211 26.944 80.6344 26.552C80.4664 26.1413 80.3824 25.4133 80.3824 24.368C80.3824 23.7707 80.3918 23.2947 80.4104 22.94L80.4384 20.7C80.4384 17.8253 80.7278 14.8293 81.3064 11.712C81.9038 8.59467 82.7718 5.98133 83.9104 3.872C85.0678 1.744 86.4491 0.679998 88.0544 0.679998C88.9131 0.679998 89.6038 1.05333 90.1264 1.8C90.6678 2.528 90.9384 3.48 90.9384 4.656C90.9384 6.54133 90.3878 8.50133 89.2864 10.536C88.1851 12.552 86.3931 14.9133 83.9104 17.62C83.8544 18.5907 83.8264 19.5893 83.8264 20.616C84.4424 19.0293 85.1238 17.7413 85.8704 16.752C86.6358 15.744 87.3824 15.0253 88.1104 14.596C88.8571 14.1667 89.5384 13.952 90.1544 13.952C91.3678 13.952 91.9744 14.5587 91.9744 15.772C91.9744 16.5 91.7691 17.816 91.3584 19.72C91.0038 21.344 90.8264 22.4173 90.8264 22.94C90.8264 23.6867 91.0971 24.06 91.6384 24.06C92.0118 24.06 92.4504 23.836 92.9544 23.388C93.4771 22.9213 94.1678 22.1747 95.0264 21.148C95.2504 20.8867 95.5024 20.756 95.7824 20.756ZM87.4664 3.452C87.1304 3.452 86.7571 3.93733 86.3464 4.908C85.9358 5.86 85.5344 7.15733 85.1424 8.8C84.7691 10.424 84.4611 12.1973 84.2184 14.12C85.3758 12.7573 86.3278 11.2733 87.0744 9.668C87.8398 8.06267 88.2224 6.60667 88.2224 5.3C88.2224 4.70267 88.1571 4.24533 88.0264 3.928C87.8958 3.61067 87.7091 3.452 87.4664 3.452ZM108.577 18.404C108.82 18.404 109.006 18.5253 109.137 18.768C109.268 19.0107 109.333 19.3187 109.333 19.692C109.333 20.588 109.062 21.12 108.521 21.288C107.401 21.68 106.169 21.904 104.825 21.96C104.47 23.528 103.77 24.788 102.725 25.74C101.68 26.6733 100.494 27.14 99.1691 27.14C98.0491 27.14 97.0878 26.8693 96.2851 26.328C95.5011 25.7867 94.9038 25.068 94.4931 24.172C94.0825 23.276 93.8771 22.3053 93.8771 21.26C93.8771 19.8413 94.1478 18.5813 94.6891 17.48C95.2305 16.36 95.9771 15.492 96.9291 14.876C97.8811 14.2413 98.9358 13.924 100.093 13.924C101.512 13.924 102.65 14.4187 103.509 15.408C104.386 16.3787 104.9 17.5827 105.049 19.02C105.926 18.964 106.972 18.7773 108.185 18.46C108.334 18.4227 108.465 18.404 108.577 18.404ZM99.3931 24.172C99.9905 24.172 100.504 23.9293 100.933 23.444C101.381 22.9587 101.68 22.2587 101.829 21.344C101.25 20.952 100.802 20.4387 100.485 19.804C100.186 19.1693 100.037 18.4973 100.037 17.788C100.037 17.4893 100.065 17.1907 100.121 16.892H99.9811C99.2345 16.892 98.6091 17.256 98.1051 17.984C97.6198 18.6933 97.3771 19.7013 97.3771 21.008C97.3771 22.0347 97.5731 22.8187 97.9651 23.36C98.3758 23.9013 98.8518 24.172 99.3931 24.172ZM118.018 18.46C118.018 19.9347 117.673 21.3347 116.982 22.66C116.31 23.9667 115.405 25.0307 114.266 25.852C113.146 26.6733 111.942 27.1027 110.654 27.14C110.411 30.7427 109.861 33.748 109.002 36.156C108.143 38.5827 106.883 39.796 105.222 39.796C104.214 39.796 103.467 39.432 102.982 38.704C102.497 37.976 102.254 36.968 102.254 35.68C102.254 33.8507 102.674 31.7133 103.514 29.268C104.354 26.8413 105.651 24.1627 107.406 21.232C107.406 18.5067 107.387 16.612 107.35 15.548C107.331 15.0067 107.546 14.5773 107.994 14.26C108.442 13.9427 109.002 13.784 109.674 13.784C110.066 13.784 110.346 13.868 110.514 14.036C110.701 14.1853 110.803 14.4933 110.822 14.96C110.822 15.4267 110.831 15.772 110.85 15.996C111.447 15.2493 112.035 14.7173 112.614 14.4C113.193 14.064 113.809 13.896 114.462 13.896C115.507 13.896 116.357 14.316 117.01 15.156C117.682 15.996 118.018 17.0973 118.018 18.46ZM110.794 24.452C111.466 24.3027 112.082 23.9387 112.642 23.36C113.221 22.7627 113.678 22.0347 114.014 21.176C114.35 20.2987 114.518 19.384 114.518 18.432C114.518 17.872 114.406 17.452 114.182 17.172C113.958 16.8733 113.659 16.724 113.286 16.724C112.614 16.724 111.802 17.4333 110.85 18.852C110.831 19.6733 110.822 20.8773 110.822 22.464C110.822 23.3227 110.813 23.9853 110.794 24.452ZM105.446 37.052C105.95 37.052 106.37 35.9507 106.706 33.748C107.042 31.564 107.257 28.8387 107.35 25.572C106.547 27.4387 105.913 29.2213 105.446 30.92C104.979 32.6187 104.746 34.0467 104.746 35.204C104.746 35.8013 104.821 36.2587 104.97 36.576C105.101 36.8933 105.259 37.052 105.446 37.052Z" fill="#611402"/>
</svg>
